<svg width="697" height="71" viewBox="0 0 697 71" fill="none" xmlns="http://www.w3.org/2000/svg">
<path d="M63.3361 -8.82149e-06H71.4481L61.6201 70.2H44.1481L42.1981 63.024H54.3661L63.3361 -8.82149e-06ZM44.3041 28.548H36.5821L36.5041 30.654C35.7761 36.946 34.7621 44.382 33.4621 52.962H19.0321L17.0041 46.254H26.1301C26.6501 42.978 27.2741 38.688 28.0021 33.384C28.1061 32.656 28.0021 32.24 27.6901 32.136C27.3781 32.032 27.1441 31.98 26.9881 31.98H14.1961L10.2181 63.336H36.4261L33.6181 70.2H0.936051L6.39605 28.158H5.07534e-05C5.92805 19.058 11.2581 10.27 15.9901 1.79399H32.1361C33.1241 1.79399 33.8521 1.97599 34.3201 2.33999C34.8401 2.70399 35.2561 3.37999 35.5681 4.36799C36.2441 6.44799 37.1541 9.15199 38.2981 12.48C39.4941 15.808 40.6121 18.902 41.6521 21.762C42.7441 24.57 43.6281 26.832 44.3041 28.548ZM56.1601 6.00599L49.8421 53.586H41.6521L48.2821 6.00599H56.1601ZM31.2781 25.428C32.5781 25.428 33.5661 25.532 34.2421 25.74C31.8501 18.096 30.1601 12.48 29.1721 8.89199C29.1201 8.73599 29.0421 8.57999 28.9381 8.42399C28.8341 8.21599 28.6261 8.11199 28.3141 8.11199H21.3721C18.2521 13.78 14.8201 19.552 11.0761 25.428H31.2781ZM143.068 32.838H127.702L127.078 37.128H142.366L141.586 43.29H126.22L125.596 47.658H145.33L144.472 53.898H124.738L123.802 60.606H115.378L116.314 53.898H98.4521L99.3101 47.658H117.25L117.874 43.29H103.054L103.834 37.128H118.732L119.356 32.838H105.238L106.018 26.676H120.214L120.916 21.84H101.884L102.742 15.678H121.774L122.476 11.154H107.578L108.358 4.99199H123.334L124.036 -8.82149e-06H132.304L131.602 4.99199H141.586C143.666 4.99199 144.992 5.35599 145.564 6.08399C146.188 6.75999 146.37 8.08599 146.11 10.062L145.33 15.678H150.166L149.308 21.84H144.55L143.068 32.838ZM92.5241 52.182C93.2521 53.118 94.3441 54.132 95.8001 55.224C97.3081 56.316 99.2321 57.33 101.572 58.266C103.912 59.202 106.616 60.008 109.684 60.684C112.804 61.36 116.418 61.88 120.526 62.244C124.686 62.608 128.638 62.79 132.382 62.79H144.94L142.288 70.2H129.73C123.958 70.2 118.888 69.888 114.52 69.264C110.152 68.64 106.46 67.808 103.444 66.768C100.428 65.728 97.6981 64.506 95.2541 63.102C92.8621 61.75 90.6521 60.19 88.6241 58.422C85.9201 62.634 83.1121 66.56 80.2001 70.2H70.2161C75.3641 63.804 79.8101 57.668 83.5541 51.792C82.5141 49.608 81.5261 46.982 80.5901 43.914C79.7061 40.846 79.0821 38.09 78.7181 35.646H85.9721C85.9721 35.698 85.9981 35.828 86.0501 36.036C86.1021 36.244 86.3101 37.232 86.6741 39C87.0381 40.716 87.4801 42.432 88.0001 44.148C89.0401 42.12 90.0281 40.014 90.9641 37.83C91.9001 35.594 92.6541 33.54 93.2261 31.668C93.4341 30.992 93.2521 30.654 92.6801 30.654H78.5621L93.2261 9.51599C93.7461 8.73599 93.4861 8.34599 92.4461 8.34599H81.7601L79.9661 1.94999H101.962C103.834 1.94999 104.692 2.65199 104.536 4.05599C104.432 5.25199 104.198 6.29199 103.834 7.17599C103.522 8.05999 103.002 9.02199 102.274 10.062L92.0561 24.414H100.012C100.896 24.414 101.546 24.544 101.962 24.804C102.378 25.064 102.586 25.584 102.586 26.364C102.586 26.728 102.534 27.482 102.43 28.626C102.326 29.77 102.04 31.122 101.572 32.682C100.688 35.594 99.4141 38.792 97.7501 42.276C96.0861 45.76 94.3441 49.062 92.5241 52.182ZM130.744 11.154L130.12 15.678H137.062L137.53 12.402C137.582 11.934 137.53 11.622 137.374 11.466C137.218 11.258 136.958 11.154 136.594 11.154H130.744ZM129.262 21.84L128.56 26.676H135.424L136.126 21.84H129.262ZM182.864 0.0779902C182.448 1.58599 181.85 3.35399 181.07 5.38199C180.29 7.40999 179.25 9.59399 177.95 11.934C176.65 14.274 175.22 16.536 173.66 18.72L166.25 70.278H158.06L164.066 30.03C163.546 30.55 162.506 31.512 160.946 32.916C159.438 34.268 157.696 35.646 155.72 37.05L157.436 25.584C160.14 23.036 162.61 20.358 164.846 17.55C167.134 14.69 169.084 11.804 170.696 8.89199C172.308 5.92799 173.53 2.98999 174.362 0.0779902H182.864ZM224.594 10.686C225.166 10.686 225.712 10.79 226.232 10.998C226.752 11.206 227.116 11.492 227.324 11.856C227.532 12.22 227.636 12.61 227.636 13.026C227.636 14.69 227.324 16.588 226.7 18.72C225.452 22.828 224.048 26.78 222.488 30.576H214.142C216.222 25.844 217.756 21.814 218.744 18.486C218.796 18.33 218.822 18.122 218.822 17.862C218.822 17.602 218.614 17.472 218.198 17.472H190.898C189.546 19.552 187.986 21.554 186.218 23.478C184.502 25.35 182.76 26.988 180.992 28.392C179.224 29.796 177.612 30.94 176.156 31.824L177.404 21.684C179.328 20.02 181.148 18.044 182.864 15.756C184.58 13.416 185.984 10.868 187.076 8.11199C188.22 5.35599 189 2.67799 189.416 0.0779902H197.684C197.008 3.87399 195.942 7.40999 194.486 10.686H224.594ZM193.394 63.648L198.932 20.904H207.2L200.96 70.278H185.048L182.63 63.648H193.394ZM183.254 32.916H191.522C188.194 44.2 184.112 54.574 179.276 64.038H169.604C175.48 54.054 180.03 43.68 183.254 32.916ZM211.178 32.916H218.744C219.524 41.912 220.772 52.286 222.488 64.038H213.83C213.414 59.826 212.92 54.522 212.348 48.126C211.828 41.678 211.438 36.608 211.178 32.916ZM277.416 3.66599H305.886L305.028 9.90599H276.558L276.012 13.65H299.88L299.022 19.578H242.238L243.174 13.65H266.574L267.12 9.90599H238.572L239.43 3.66599H268.056L268.602 -8.82149e-06H277.962L277.416 3.66599ZM295.98 26.832L294.342 38.298H242.394L244.5 22.464H291.69C293.146 22.464 294.212 22.646 294.888 23.01C295.564 23.322 295.928 23.842 295.98 24.57C296.084 25.246 296.084 26 295.98 26.832ZM286.776 29.016C286.88 28.444 286.672 28.158 286.152 28.158H252.612L251.988 32.604H286.308L286.776 29.016ZM286.23 39.858L284.124 44.304H302.61L301.674 50.544H231.708L232.644 44.304H251.91L250.038 39.858H259.554L261.504 44.304H274.452L276.636 39.858H286.23ZM289.818 53.43C290.858 53.43 291.742 53.534 292.47 53.742C293.25 53.95 293.744 54.366 293.952 54.99C294.212 55.614 294.264 56.55 294.108 57.798L292.47 70.2H237.168L239.586 53.43H289.818ZM284.826 60.216C284.93 59.644 284.722 59.358 284.202 59.358H247.62L246.918 64.35H284.28L284.826 60.216ZM380.314 10.452C380.886 10.452 381.432 10.556 381.952 10.764C382.472 10.972 382.836 11.258 383.044 11.622C383.252 11.986 383.356 12.376 383.356 12.792C383.356 15.08 383.044 17.03 382.42 18.642C380.912 22.438 379.3 26.156 377.584 29.796H368.302C369.29 28.028 370.304 26.026 371.344 23.79C372.384 21.554 373.112 19.708 373.528 18.252C373.58 18.096 373.606 17.888 373.606 17.628C373.606 17.368 373.398 17.238 372.982 17.238H356.212C352.728 22.75 347.502 27.274 340.534 30.81L343.42 19.032C345.552 17.732 347.606 15.288 349.582 11.7C351.61 8.11199 353.118 4.21199 354.106 -8.82149e-06H362.764C361.828 3.89999 360.788 7.38399 359.644 10.452H380.314ZM338.974 63.648H330.082L326.416 51.714C323.296 56.81 319.838 62.088 316.042 67.548H306.37C308.814 64.376 311.518 60.606 314.482 56.238C317.498 51.87 320.488 47.112 323.452 41.964C320.228 30.94 317.758 22.412 316.042 16.38H323.842C325.194 21.632 326.754 27.04 328.522 32.604C332.318 24.908 334.97 18.07 336.478 12.09C336.53 11.83 336.478 11.622 336.322 11.466C336.166 11.31 335.932 11.232 335.62 11.232H315.73L316.666 4.60199H342.172C343.94 4.60199 345.058 5.06999 345.526 6.00599C345.994 6.88999 345.89 8.44999 345.214 10.686C342.042 21.346 337.544 32.006 331.72 42.666C334.476 50.986 336.894 57.98 338.974 63.648ZM360.424 39.234H366.274C367.054 42.718 368.068 46.462 369.316 50.466C370.616 54.418 371.968 58.084 373.372 61.464C374.828 64.896 376.18 67.808 377.428 70.2H367.21C365.858 66.716 364.428 62.348 362.92 57.096C361.412 51.792 360.19 46.826 359.254 42.198C358.214 44.85 356.94 47.866 355.432 51.246C353.924 54.574 352.234 57.928 350.362 61.308C348.49 64.74 346.696 67.704 344.98 70.2H334.996C339.988 63.804 344.408 56.498 348.256 48.282C352.104 40.014 355.25 31.2 357.694 21.84H365.962C364.35 27.768 362.504 33.566 360.424 39.234ZM455.21 11.934C456.822 11.934 457.992 12.168 458.72 12.636C459.448 13.052 459.864 13.702 459.968 14.586C460.072 15.47 460.072 16.406 459.968 17.394C459.188 23.79 458.278 30.81 457.238 38.454C456.198 46.046 454.69 56.628 452.714 70.2H431.81L429.626 62.79H444.992C447.8 45.734 449.854 31.668 451.154 20.592C451.206 20.124 451.154 19.786 450.998 19.578C450.842 19.318 450.608 19.188 450.296 19.188H436.646C434.878 21.32 432.876 23.322 430.64 25.194C428.404 27.066 426.012 28.73 423.464 30.186L425.18 18.876C426.948 17.784 428.742 16.172 430.562 14.04C432.434 11.908 433.968 9.56799 435.164 7.01999C436.412 4.41999 437.166 2.07999 437.426 -8.82149e-06H446.318C445.954 1.87199 445.382 3.84799 444.602 5.92799C443.822 7.95599 442.86 9.95799 441.716 11.934H455.21ZM418.004 11.31C419.304 11.31 420.396 11.44 421.28 11.7C422.216 11.96 422.814 12.532 423.074 13.416C423.334 14.248 423.334 15.626 423.074 17.55L416.834 68.25H389.378L397.178 11.31H404.978C405.654 10.166 406.382 8.60599 407.162 6.62999C407.994 4.60199 408.722 2.65199 409.346 0.77999H418.706C418.03 2.49599 417.25 4.34199 416.366 6.31799C415.534 8.24199 414.754 9.90599 414.026 11.31H418.004ZM414.65 19.266C414.806 18.33 414.468 17.862 413.636 17.862H404.432L402.092 35.412H412.622L414.65 19.266ZM441.17 52.26H432.2C431.264 48.568 430.406 44.824 429.626 41.028C428.846 37.18 428.17 33.54 427.598 30.108H435.944C437.192 36.712 438.934 44.096 441.17 52.26ZM398.66 61.542H409.346L411.764 41.964H401.234L398.66 61.542ZM506.004 22.308L505.068 28.938H469.422L470.358 22.308H474.102L476.442 5.61599H483.93L481.59 22.308H485.958L489 -8.82149e-06H496.644L495.474 8.81399H505.848L504.99 15.21H494.616L493.68 22.308H506.004ZM540.48 8.11199H527.844C527.584 9.04799 527.22 10.218 526.752 11.622C526.284 12.974 525.92 14.014 525.66 14.742H532.836C535.02 14.742 536.424 15.158 537.048 15.99C537.724 16.822 537.906 18.33 537.594 20.514L532.914 53.04H525.582L529.716 22.074C529.768 21.71 529.716 21.45 529.56 21.294C529.404 21.086 529.144 20.982 528.78 20.982H515.364L510.996 53.04H503.508L508.968 14.742H517.86C518.744 12.714 519.524 10.504 520.2 8.11199H507.408L508.344 1.71599H541.416L540.48 8.11199ZM519.42 53.976H525.27C527.038 57.98 529.924 63.388 533.928 70.2H524.958C522.67 65.364 520.564 60.58 518.64 55.848C517.704 57.876 516.508 60.034 515.052 62.322C513.596 64.61 511.594 67.236 509.046 70.2H498.204C502.676 66.612 506.368 62.686 509.28 58.422C512.244 54.106 514.298 49.218 515.442 43.758C515.65 42.718 516.04 40.56 516.612 37.284C517.184 33.956 517.73 29.614 518.25 24.258H525.426C524.49 33.618 523.398 40.768 522.15 45.708C521.422 48.516 520.512 51.272 519.42 53.976ZM487.986 49.92H480.186L483.462 30.264H491.106L487.986 49.92ZM480.732 33.462C479.848 36.478 478.782 39.572 477.534 42.744C476.286 45.864 474.908 48.958 473.4 52.026H465.522C469.006 45.266 471.658 39.078 473.478 33.462H480.732ZM495.786 35.646H503.352C501.948 41.626 500.154 46.644 497.97 50.7C495.786 54.704 493.056 58.084 489.78 60.84C486.504 63.648 482.604 65.832 478.08 67.392C473.608 68.952 468.564 70.018 462.948 70.59L465.132 62.712C470.332 61.776 474.648 60.554 478.08 59.046C481.512 57.538 484.32 55.744 486.504 53.664C488.688 51.584 490.534 49.114 492.042 46.254C493.55 43.394 494.798 39.858 495.786 35.646ZM607.264 8.65799H618.808L617.872 15.054H595.954C595.798 15.314 595.434 16.068 594.862 17.316C594.29 18.512 593.77 19.5 593.302 20.28H608.668C610.54 20.28 611.736 20.696 612.256 21.528C612.828 22.308 612.958 23.842 612.646 26.13L608.2 58.344H566.548L571.93 20.28H584.722C585.45 18.772 586.23 17.03 587.062 15.054H569.122L570.058 8.65799H581.68L578.716 0.0779902H587.218L590.494 8.65799H598.762C599.022 8.13799 599.49 7.14999 600.166 5.69399C600.842 4.23799 601.622 2.36599 602.506 0.0779902H611.476C609.448 4.34199 608.044 7.20199 607.264 8.65799ZM567.484 18.018H558.436C556.46 13.078 554.38 7.25399 552.196 0.545989H560.62C562.544 5.84999 564.832 11.674 567.484 18.018ZM558.202 56.784C560.074 58.136 562.44 59.306 565.3 60.294C568.212 61.334 571.826 62.062 576.142 62.478C580.458 62.894 585.528 63.102 591.352 63.102H613.738L611.008 70.278H589.246C583.786 70.278 579.054 70.044 575.05 69.576C571.046 69.108 567.38 68.328 564.052 67.236C560.724 66.196 557.63 64.74 554.77 62.868C553.054 65.78 551.546 68.25 550.246 70.278H540.652C543.408 66.586 545.982 62.686 548.374 58.578C550.766 54.418 552.716 50.518 554.224 46.878C554.432 45.422 554.77 42.926 555.238 39.39C555.706 35.854 555.966 33.904 556.018 33.54C556.07 33.072 556.018 32.76 555.862 32.604C555.706 32.396 555.42 32.292 555.004 32.292H547.36L548.452 25.116H560.854C562.362 25.116 563.376 25.402 563.896 25.974C564.468 26.494 564.676 27.534 564.52 29.094C563.792 35.178 562.96 41.912 562.024 49.296C560.516 52.468 559.242 54.964 558.202 56.784ZM604.3 27.612C604.352 27.352 604.326 27.144 604.222 26.988C604.17 26.832 604.066 26.754 603.91 26.754H579.028L578.482 31.044H603.832L604.3 27.612ZM577.624 37.05L577 41.34H602.428L603.052 37.05H577.624ZM575.596 51.87H601.024L601.648 47.346H576.22L575.596 51.87ZM691.832 2.49599C693.652 2.49599 694.848 2.88599 695.42 3.66599C696.044 4.44599 696.226 5.79799 695.966 7.72199L691.754 38.22H661.568L658.058 63.57H691.364L688.244 70.2H648.776L658.136 2.49599H691.832ZM648.62 4.52399C649.972 4.52399 650.934 4.70599 651.506 5.06999C652.13 5.43399 652.468 6.00599 652.52 6.78599C652.624 7.56599 652.598 8.42399 652.442 9.35999L645.89 58.344H624.206L632.006 4.52399H648.62ZM665.546 9.12599L662.504 31.59H669.368L672.488 9.12599H665.546ZM677.402 31.59H684.344L687.542 9.90599C687.594 9.59399 687.568 9.38599 687.464 9.28199C687.36 9.17799 687.178 9.12599 686.918 9.12599H680.522L677.402 31.59ZM644.408 11.7C644.408 11.596 644.408 11.466 644.408 11.31C644.408 11.154 644.252 11.076 643.94 11.076H638.792L633.098 51.792H638.87L644.408 11.7Z" fill="#141414"/>
</svg>
